STARTFONT 2.1
FONT jis.jis8200.24
SIZE 24 72 72
FONTBOUNDINGBOX 24 24 0 -3
STARTPROPERTIES 4
FONT_DESCENT 3
FONT_ASCENT 21
DEFAULT_CHAR 1
COPYRIGHT "Copyright (c) 1992 AT&T - All rights reserved."
ENDPROPERTIES
CHARS 166
STARTCHAR ch-1
ENCODING 1
SWIDTH 1000 0
DWIDTH 24 0
BBX 24 24 0 -3
BITMAP
006000
09f030
0f07f8
0c0030
0c0030
0c4030
0fe7f0
0c0030
0c0030
0c0030
0ffff0
000000
01c1c0
018180
018186
ffffff
018180
018180
030180
030180
060180
0c0180
180180
600180
ENDCHAR
STARTCHAR ch-2
ENCODING 2
SWIDTH 1000 0
DWIDTH 24 0
BBX 24 24 0 -3
BITMAP
003800
003000
003018
3ffffc
006000
006000
1ffff8
00c200
008200
018106
ffffff
0300c0
062060
0cf030
1f87fc
36006f
c60066
060060
07e7e0
060060
060060
060060
07ffe0
060060
ENDCHAR
STARTCHAR ch-5
ENCODING 5
SWIDTH 1000 0
DWIDTH 24 0
BBX 24 24 0 -3
BITMAP
006000
11f018
1f07fc
180018
1fc3f8
180018
180018
1ffff8
000000
0ffff0
0c1830
0c1830
0ffff0
0c1830
0c1830
0ffff0
003000
00300c
7ffffe
00600c
00c00c
018018
0600f8
380030
ENDCHAR
STARTCHAR ch-7
ENCODING 7
SWIDTH 1000 0
DWIDTH 24 0
BBX 24 24 0 -3
BITMAP
037000
07e00c
2c62fe
307f0c
30600c
30600c
30660c
3e7f7c
30660c
30060c
30060c
30e60c
3ec67c
30c60c
30c60c
30c60c
30c60c
ffffff
020000
038180
070060
0e0038
18001c
60000c
ENDCHAR
STARTCHAR ch-8
ENCODING 8
SWIDTH 1000 0
DWIDTH 24 0
BBX 24 24 0 -3
BITMAP
030000
07810c
2cfffe
30810c
30810c
30bd0c
30810c
3e817c
30bd0c
30a50c
30a50c
30a50c
3ea57c
30bd0c
30810c
30810c
30810c
ffffff
020000
038180
070060
0e0038
18001c
60000c
ENDCHAR
STARTCHAR ch-9
ENCODING 9
SWIDTH 1000 0
DWIDTH 24 0
BBX 24 24 0 -3
BITMAP
013000
13be18
1e30fc
183018
183e18
1f06f8
186618
186618
1f66f8
186618
18661e
ffffff
030040
061c20
0c1830
18199c
33ffcf
c01806
001818
3ffffc
001800
001800
001800
001800
ENDCHAR
STARTCHAR ch-10
ENCODING 10
SWIDTH 1000 0
DWIDTH 24 0
BBX 24 24 0 -3
BITMAP
01c1c0
018186
ffffff
018180
020800
038e00
070c30
0ffff8
1c0800
3ffff0
cc0800
0ffff0
0c0800
0c080c
0ffffe
000000
107018
1fc3fc
180018
1fc3f8
180018
180018
1ffff8
180018
ENDCHAR
STARTCHAR ch-12
ENCODING 12
SWIDTH 1000 0
DWIDTH 24 0
BBX 24 24 0 -3
BITMAP
000060
0001f0
000f80
00f800
3f1800
001800
001800
001806
ffffff
001800
001800
001800
001800
081830
0ffff8
0c0030
0c0030
0c0030
0c0030
0c0030
0c0030
0ffff0
0c0030
0c0030
ENDCHAR
STARTCHAR ch-13
ENCODING 13
SWIDTH 1000 0
DWIDTH 24 0
BBX 24 24 0 -3
BITMAP
001800
001800
003400
006200
00c180
0180e0
030078
0c019f
33ffc6
c01800
001800
00180c
7ffffe
001800
001800
041860
07fff0
060060
060060
060060
060060
060060
07ffe0
060060
ENDCHAR
STARTCHAR ch-14
ENCODING 14
SWIDTH 1000 0
DWIDTH 24 0
BBX 24 24 0 -3
BITMAP
001800
001800
003400
006200
00c180
0180e0
031c78
0c181f
3018c6
c7ffe0
001800
001800
00180c
7ffffe
000000
040060
07fff0
060060
060060
060060
060060
060060
07ffe0
060060
ENDCHAR
STARTCHAR ch-16
ENCODING 16
SWIDTH 1000 0
DWIDTH 24 0
BBX 24 24 0 -3
BITMAP
00000c
01887e
0fcfe0
7c0c60
0c0c60
0c0c60
0c0c60
0ccc60
ffec60
0c0c66
0c0fff
0c0c60
0c0c60
4d8c30
7fcc30
618c30
618c30
618c12
618c1a
618c1a
7f8c0e
61bf8e
601c07
001003
ENDCHAR
STARTCHAR ch-18
ENCODING 18
SWIDTH 1000 0
DWIDTH 24 0
BBX 24 24 0 -3
BITMAP
060000
06000c
0d8ffe
0c600c
183218
1031a0
20c0c0
7fe0c0
860006
061fff
0600c6
0630c6
fff8c4
0600c8
0600c0
0600c0
4660c0
7ff0c0
6060c0
6060c0
6060c0
6060c0
7fe7c0
606180
ENDCHAR
STARTCHAR ch-22
ENCODING 22
SWIDTH 1000 0
DWIDTH 24 0
BBX 24 24 0 -3
BITMAP
0c00e0
0c00c8
1a00c6
1980c2
10ffff
30c0c0
2000c0
7f90c6
8c1fff
0c18c6
0c18c6
ffd8c6
0c1ffe
0c18c6
4d98c6
7fd8c6
619ffe
6198c6
6198c6
6198c6
6198c6
7f98c6
6198de
6018cc
ENDCHAR
STARTCHAR ch-23
ENCODING 23
SWIDTH 1000 0
DWIDTH 24 0
BBX 24 24 0 -3
BITMAP
0600e8
0600c6
0d00c6
0cc0c0
187fff
1060c0
2600c0
4688c4
bfcffe
0608c4
0608c4
0648c4
7feffc
0008c4
0008c4
20c8c4
3feffc
30c8c4
30c8c4
30c8c4
30c8c4
3fc8c4
30c8dc
30c8cc
ENDCHAR
STARTCHAR ch-24
ENCODING 24
SWIDTH 1000 0
DWIDTH 24 0
BBX 24 24 0 -3
BITMAP
0600e0
0600c0
0d08c0
0c88c6
18cfff
10d806
201804
5fc418
8607fc
060618
062618
fff618
0607f8
060600
060600
26c60c
3fe7fe
30c60c
30c60c
30c60c
30c60c
30c60c
3fc7fc
30c60c
ENDCHAR
STARTCHAR ch-27
ENCODING 27
SWIDTH 1000 0
DWIDTH 24 0
BBX 24 24 0 -3
BITMAP
040070
070060
060060
060060
0c0060
0c606c
0ffffe
186660
106660
30c660
28c660
46c660
838660
018660
030666
023fff
060060
0c0060
080060
100060
200060
400060
800060
000060
ENDCHAR
STARTCHAR ch-28
ENCODING 28
SWIDTH 1000 0
DWIDTH 24 0
BBX 24 24 0 -3
BITMAP
000078
003ffc
3ff820
041038
030830
218c20
218c46
7fffff
64000c
c70070
c63060
0ff064
0c3ffe
186c60
346c60
66cc60
86cc60
018c66
033fff
060060
0c0060
180060
300060
c00060
ENDCHAR
STARTCHAR ch-30
ENCODING 30
SWIDTH 1000 0
DWIDTH 24 0
BBX 24 24 0 -3
BITMAP
040000
070000
060018
0ffffc
1c4440
244440
044446
ffffff
044440
044440
04444c
7ffffe
080000
0c6060
0fe064
18dffe
10cc60
298c60
cd0c66
027fff
040060
080060
300060
c00060
ENDCHAR
STARTCHAR ch-31
ENCODING 31
SWIDTH 1000 0
DWIDTH 24 0
BBX 24 24 0 -3
BITMAP
001000
001c00
001800
042060
07fff0
060060
062060
061860
060c60
060c60
060066
ffffff
060060
060060
061c60
061860
061860
061860
0c1860
0c1860
181860
100060
2003e0
c000c0
ENDCHAR
STARTCHAR ch-41
ENCODING 41
SWIDTH 1000 0
DWIDTH 24 0
BBX 24 24 0 -3
BITMAP
040020
070420
060720
24c610
3fe610
30c610
38c618
34c408
34c40c
30cd0c
30e9ce
ffc987
70d186
30c180
34c100
34c100
34c310
34c308
34c208
30c20c
20c27c
60dfc6
43ce06
818806
ENDCHAR
STARTCHAR ch-42
ENCODING 42
SWIDTH 1000 0
DWIDTH 24 0
BBX 24 24 0 -3
BITMAP
0400e0
0700c0
0600c0
24c0c0
3fe0c6
30dfff
34c000
36c000
32c430
30c7f8
30f630
ffc630
78c630
30c630
34c630
34c630
34c630
34c630
34c632
24c432
20c432
60cc33
47c83f
81b01e
ENDCHAR
STARTCHAR ch-43
ENCODING 43
SWIDTH 1000 0
DWIDTH 24 0
BBX 24 24 0 -3
BITMAP
0400e0
0700c0
0600c0
24c0c0
3fe0c6
30dfff
38c300
34c300
34c300
30c30c
30e3fe
ffc30c
70c30c
30c30c
34c30c
34c30c
34c30c
34c60c
34c60c
30c61c
20c418
60cc18
43c8f8
819030
ENDCHAR
STARTCHAR ch-44
ENCODING 44
SWIDTH 1000 0
DWIDTH 24 0
BBX 24 24 0 -3
BITMAP
040000
070430
1667f8
1ff630
186630
1c6630
1a6630
1a6430
1a6c3f
18681f
187000
ffe018
786ffc
586218
1a6230
1a6230
1a6160
1a61c0
3260c0
3061e0
206338
63e61f
40cc0e
803006
ENDCHAR
STARTCHAR ch-46
ENCODING 46
SWIDTH 1000 0
DWIDTH 24 0
BBX 24 24 0 -3
BITMAP
040000
070006
060fff
24c000
3fe000
30c40c
38c7fe
34c60c
34c60c
30c60c
30e60c
ffc60c
70c7fc
30c60c
34c600
34c600
34c600
34c600
34c600
30c600
20cc00
60cc00
43c800
819000
ENDCHAR
STARTCHAR ch-51
ENCODING 51
SWIDTH 1000 0
DWIDTH 24 0
BBX 24 24 0 -3
BITMAP
0400e0
0700c0
0600c0
24c0c0
3fe0c0
30c0c0
38c8c6
34cfff
34ccc6
30ccc6
30ecc6
ffccc6
70ccc6
30ccc6
34cffe
34ccc6
34ccc6
34ccc6
34ccc6
30ccc6
20ccc6
60ccc6
43cffe
818c06
ENDCHAR
STARTCHAR ch-53
ENCODING 53
SWIDTH 1000 0
DWIDTH 24 0
BBX 24 24 0 -3
BITMAP
0400e0
0700c0
0600c0
24c4c0
3fe4c6
30cfff
38cc06
34d804
34d808
30c380
30f300
ffc308
70c30e
30c31c
34c330
34c3c0
34c300
34c300
34c300
30c304
20c304
60c306
43c3fe
8181fc
ENDCHAR
STARTCHAR ch-54
ENCODING 54
SWIDTH 1000 0
DWIDTH 24 0
BBX 24 24 0 -3
BITMAP
080040
0e0070
0c0060
28c060
3fe040
30c486
38c7ff
34c606
34c606
34c606
30c606
30f606
ffc606
70c7fe
30c606
34c606
34c606
34c606
24c606
24c606
60c606
40c7fe
47c606
818606
ENDCHAR
STARTCHAR ch-55
ENCODING 55
SWIDTH 1000 0
DWIDTH 24 0
BBX 24 24 0 -3
BITMAP
0400e0
0700c0
0600c0
24c0c0
3fe0c6
30dfff
30c080
3cc0e0
36c0c0
36c080
30e910
ffc61c
78c318
30c330
34c030
34c060
34c040
34c0c0
34c088
34c104
20c206
60dffb
47cf83
818803
ENDCHAR
STARTCHAR ch-56
ENCODING 56
SWIDTH 1000 0
DWIDTH 24 0
BBX 24 24 0 -3
BITMAP
040000
070006
061fff
24c00c
3fe00c
30c00c
38c8cc
34cfec
34cccc
30cccc
30eccc
ffcccc
70cccc
30cccc
34cccc
34cfcc
34cccc
34c00c
34c00c
30c00c
20c00c
60c00c
43c07c
818018
ENDCHAR
STARTCHAR ch-57
ENCODING 57
SWIDTH 1000 0
DWIDTH 24 0
BBX 24 24 0 -3
BITMAP
040420
070720
060620
24c620
3fe610
30c610
38c410
34cc18
34c80c
30c80f
30d006
ffe000
70c000
30c80c
34cffe
34cc0c
34cc0c
34cc0c
34cc0c
34cc0c
20cc0c
60cffc
43cc0c
818c0c
ENDCHAR
STARTCHAR ch-64
ENCODING 64
SWIDTH 1000 0
DWIDTH 24 0
BBX 24 24 0 -3
BITMAP
04000c
07003e
0600f0
24cf04
3fe107
30c8c6
38c64c
34c208
34c010
30cffe
30e00c
ffc018
70c0a0
30c0c0
34c0c6
34ffff
34c0c0
34c0c0
34c0c0
30c0c0
20c0c0
60c0c0
43c7c0
818180
ENDCHAR
STARTCHAR ch-71
ENCODING 71
SWIDTH 1000 0
DWIDTH 24 0
BBX 24 24 0 -3
BITMAP
080000
0e000c
2c0c3e
3f7ef0
230c30
230c30
331830
2b1830
2b1836
2331ff
23be30
ff3630
630630
230630
2b2630
2b2430
2b1430
2b1c36
2b09ff
231c00
631600
432380
4f40ff
86803e
ENDCHAR
STARTCHAR ch-88
ENCODING 88
SWIDTH 1000 0
DWIDTH 24 0
BBX 24 24 0 -3
BITMAP
0400e0
0700c0
0608c4
24cffe
3fe8c4
30c8c4
38c8c4
34cffc
34c8c4
30c8c4
30e8c4
ffcffc
70c0c0
30c0c0
34c0cc
34dffe
34c40c
34c218
34c330
30c1e0
20c0f0
60c13f
43c61e
819806
ENDCHAR
STARTCHAR ch-89
ENCODING 89
SWIDTH 1000 0
DWIDTH 24 0
BBX 24 24 0 -3
BITMAP
040180
070180
060340
24c320
3fe630
30c41c
38cbef
34d006
34c000
30cff8
30ec18
ffcc18
70cff8
30cc18
34cc18
34cff8
34cc00
34c800
34dffc
30d60c
20e60c
60c60c
43c7fc
81860c
ENDCHAR
STARTCHAR ch-90
ENCODING 90
SWIDTH 1000 0
DWIDTH 24 0
BBX 24 24 0 -3
BITMAP
080330
0e0220
0c0226
29bfff
3fc220
318220
399ffe
359222
359222
319ffe
31d222
ff9222
719ffe
318000
35880c
358ffe
358c0c
358c0c
358ffc
318c0c
218c0c
618c0c
478ffc
830c0c
ENDCHAR
STARTCHAR ch-93
ENCODING 93
SWIDTH 1000 0
DWIDTH 24 0
BBX 24 24 0 -3
BITMAP
04000c
070ffe
0600c0
24c8c6
3fefff
30d8c6
38d8c4
34c0c0
34cedc
30c0c0
30e0c0
ffcedc
70c0c0
30c0c0
34c00c
34cffe
34c00c
34c00c
34cffc
30c00c
20c00c
60c00c
43cffc
81800c
ENDCHAR
STARTCHAR ch-95
ENCODING 95
SWIDTH 1000 0
DWIDTH 24 0
BBX 24 24 0 -3
BITMAP
0800e0
0e00c0
0c00c4
299ffe
3fc410
318218
398210
358022
35bfff
318000
31cffc
ff88c4
7188c4
318ffc
3588c4
3588c4
358ffc
3580c0
3580c4
319ffe
2180c0
6180c2
47bfff
830000
ENDCHAR
STARTCHAR ch-98
ENCODING 98
SWIDTH 1000 0
DWIDTH 24 0
BBX 24 24 0 -3
BITMAP
0800e0
0e00c0
0c00c6
29bfff
3fc0c0
318ccc
3988c8
358ccc
358aca
3192d2
31c0c0
ffbfff
718000
318000
359ffe
359806
3599e6
359926
359926
319926
2199e6
619806
479ffe
831806
ENDCHAR
STARTCHAR ch-100
ENCODING 100
SWIDTH 1000 0
DWIDTH 24 0
BBX 24 24 0 -3
BITMAP
080810
0e0618
0c0220
293ffe
3f8080
230080
331ffc
2b0080
2b0080
237fff
238000
ff0268
730f46
237842
2b0840
2b7fff
2b0844
2b0866
2b7f2c
233838
630812
43082a
4f7847
861983
ENDCHAR
STARTCHAR ch-102
ENCODING 102
SWIDTH 1000 0
DWIDTH 24 0
BBX 24 24 0 -3
BITMAP
080020
0e2338
0c3fb0
292430
3fa426
313f7f
392140
352180
353f00
312406
31a47f
ff2400
713f80
312000
350000
353ffc
35324c
35324c
35324c
31324c
61324c
61324c
4fffff
860000
ENDCHAR
STARTCHAR ch-104
ENCODING 104
SWIDTH 1000 0
DWIDTH 24 0
BBX 24 24 0 -3
BITMAP
080738
0e0632
0c3fff
298630
3fc630
319006
399fff
35b006
35b3e4
318000
31c002
ffbfff
718180
318304
358d86
35b18c
3582d0
358cc0
35b1e0
3182d8
218ccf
61b0c6
4787c0
830180
ENDCHAR
STARTCHAR ch-106
ENCODING 106
SWIDTH 1000 0
DWIDTH 24 0
BBX 24 24 0 -3
BITMAP
080200
0e0330
0c07f8
298420
3fc840
319ffe
398c46
358c46
358ffe
318c46
31cc46
ff8ffe
718000
318926
359923
359803
3587fc
35860c
35860c
3187fc
21860c
61860c
4787fc
83060c
ENDCHAR
STARTCHAR ch-107
ENCODING 107
SWIDTH 1000 0
DWIDTH 24 0
BBX 24 24 0 -3
BITMAP
0801c0
0e0190
0c01f8
292182
3fbfff
232306
3323c4
2b2f10
2b2318
2321f8
23a000
ff27f8
732488
2327f8
2b2488
2b27f8
2b2000
2b6ffc
2b4924
234924
638924
430924
4f3fff
860000
ENDCHAR
STARTCHAR ch-110
ENCODING 110
SWIDTH 1000 0
DWIDTH 24 0
BBX 24 24 0 -3
BITMAP
080060
0ffff0
0c0060
0c0060
0c0060
0c0060
0fffe0
0c0060
0c0060
0c0060
0c0060
0fffe8
0c100e
0c081c
0c0830
0c04c0
0c0600
0c0300
0c0380
0c31c0
0fc0f0
fe007e
70003c
400008
ENDCHAR
STARTCHAR ch-111
ENCODING 111
SWIDTH 1000 0
DWIDTH 24 0
BBX 24 24 0 -3
BITMAP
001c00
001800
041860
07fff0
060060
060060
060060
07ffe0
060060
060060
060060
060060
07ffe0
06086c
06081e
060470
060580
060200
060300
063180
07c0e0
7e007e
38003c
20000c
ENDCHAR
STARTCHAR ch-113
ENCODING 113
SWIDTH 1000 0
DWIDTH 24 0
BBX 24 24 0 -3
BITMAP
1dc40c
1987fe
19960c
fffe0c
19860c
1987fc
00060c
7fe60c
46260c
46260c
4627fc
7fe640
060644
060647
7fe646
060624
060628
fff620
060630
0d0610
0c8618
18dfcf
30ce0e
c00806
ENDCHAR
STARTCHAR ch-114
ENCODING 114
SWIDTH 1000 0
DWIDTH 24 0
BBX 24 24 0 -3
BITMAP
010000
01c000
018180
03ffc0
030300
060600
040400
080818
1ffffc
2c1818
cc1818
0c1818
0c1818
0c1818
0ffff8
0c0018
0c0000
0c0000
0c0002
0c0002
0c0002
0c0003
0fffff
07fffe
ENDCHAR
STARTCHAR ch-118
ENCODING 118
SWIDTH 1000 0
DWIDTH 24 0
BBX 24 24 0 -3
BITMAP
048080
4498e0
7ffccc
6498fe
649898
7ff998
649910
649926
7ffbff
000726
000326
ffff26
000326
203326
3ffbfe
303306
303300
3ff300
084300
044302
049b02
ffe303
7c03ff
4001fe
ENDCHAR
STARTCHAR ch-119
ENCODING 119
SWIDTH 1000 0
DWIDTH 24 0
BBX 24 24 0 -3
BITMAP
525100
7af1c0
525188
7af1fc
525118
7af310
525230
421426
7ff3ff
000326
000326
fffb26
000326
3fe326
3063fe
306306
3fe300
004300
206302
184302
088302
fff303
7c03ff
4001fe
ENDCHAR
STARTCHAR ch-120
ENCODING 120
SWIDTH 1000 0
DWIDTH 24 0
BBX 24 24 0 -3
BITMAP
070070
060060
060060
060060
060060
060060
767767
666666
666666
666666
666666
666666
666666
666666
7fe7fe
666666
040060
0c0060
0c0060
080060
180060
100060
200060
400060
ENDCHAR
STARTCHAR ch-126
ENCODING 126
SWIDTH 1000 0
DWIDTH 24 0
BBX 24 24 0 -3
BITMAP
00e380
00c300
00c306
ffffff
00c300
00c300
00c300
000000
000080
0200e0
0200c0
0100c0
010180
008180
00c300
006300
003600
001c00
001e00
003780
0061f0
01807f
0e001e
700006
ENDCHAR
STARTCHAR ch-139
ENCODING 139
SWIDTH 1000 0
DWIDTH 24 0
BBX 24 24 0 -3
BITMAP
00e380
00c300
00c306
ffffff
00c300
00c300
00c300
000018
3ffffc
001800
001800
001800
001800
001806
ffffff
001800
001800
001800
001800
001800
001800
001800
01f800
007000
ENDCHAR
STARTCHAR ch-141
ENCODING 141
SWIDTH 1000 0
DWIDTH 24 0
BBX 24 24 0 -3
BITMAP
00e380
00c300
00c306
ffffff
00c300
00c300
04c300
070000
06000c
0ffffe
0c000c
18000c
10000c
21800c
40e00c
00380c
001c0c
000c0c
00001c
000018
000018
000038
0003f0
000060
ENDCHAR
STARTCHAR ch-146
ENCODING 146
SWIDTH 1000 0
DWIDTH 24 0
BBX 24 24 0 -3
BITMAP
01c1c0
018180
018186
ffffff
018180
018180
018180
001c00
001800
001800
001806
ffffff
0c0000
0c0000
0c0000
0c0000
0c0000
0c0000
0c0000
0c0000
0c0000
0ffffc
07fffc
000000
ENDCHAR
STARTCHAR ch-153
ENCODING 153
SWIDTH 1000 0
DWIDTH 24 0
BBX 24 24 0 -3
BITMAP
01c1c0
018180
018186
ffffff
018180
018180
001c00
001800
001830
1ffff8
001800
001800
001800
001806
ffffff
003400
006200
006300
00c180
0180c0
030070
06003f
18001e
e00006
ENDCHAR
STARTCHAR ch-157
ENCODING 157
SWIDTH 1000 0
DWIDTH 24 0
BBX 24 24 0 -3
BITMAP
01c1c0
018180
018180
018186
ffffff
018180
018180
019d80
001800
001860
7ffff0
0000e0
0001c0
000380
000600
001c00
083000
08c000
0b0000
140000
330000
e1ffff
607ffe
400000
ENDCHAR
STARTCHAR ch-159
ENCODING 159
SWIDTH 1000 0
DWIDTH 24 0
BBX 24 24 0 -3
BITMAP
01c1c0
018180
018186
ffffff
018180
018180
000000
020180
03ffc0
030180
020180
060180
0401fe
0800fe
300000
07ffe0
0100c0
008180
006700
001c00
007700
01c1f0
0f007f
f0000e
ENDCHAR
STARTCHAR ch-165
ENCODING 165
SWIDTH 1000 0
DWIDTH 24 0
BBX 24 24 0 -3
BITMAP
01c1c0
018180
018186
ffffff
018180
018180
019d80
001800
003c00
007200
00e180
01c0c0
030070
06e3bf
18c31e
e0c306
00c300
00c300
00c300
018300
018300
030300
060300
180300
ENDCHAR
STARTCHAR ch-166
ENCODING 166
SWIDTH 1000 0
DWIDTH 24 0
BBX 24 24 0 -3
BITMAP
01c1c0
018180
018186
ffffff
018180
018180
00000c
7ffffe
000000
000000
0ffff0
0c0030
0c0030
0c0030
0c0030
0ffff0
0c0030
0c0000
080000
180000
100000
100000
200000
c00000
ENDCHAR
STARTCHAR ch-171
ENCODING 171
SWIDTH 1000 0
DWIDTH 24 0
BBX 24 24 0 -3
BITMAP
01c1c0
018180
018186
ffffff
018180
018180
000000
000030
1ffff8
000000
000000
000006
ffffff
018300
018300
018300
018300
018300
030302
030302
060302
0c0303
3003ff
c001fe
ENDCHAR
STARTCHAR ch-172
ENCODING 172
SWIDTH 1000 0
DWIDTH 24 0
BBX 24 24 0 -3
BITMAP
01c1c0
018180
018186
ffffff
018180
018180
000000
010200
01c100
018180
0300c0
060070
0c003f
30000e
c7ffe6
006060
006060
006060
00c060
00c060
0180e0
0300c0
0c07c0
700180
ENDCHAR
STARTCHAR ch-173
ENCODING 173
SWIDTH 1000 0
DWIDTH 24 0
BBX 24 24 0 -3
BITMAP
00e380
00c300
00c306
ffffff
00c300
00c300
000000
080030
0ffff8
0c1830
0c1830
0c1830
0c1830
0c1830
0ffff0
0c0030
0c0000
0c0000
0c0002
0c0002
0c0002
0c0003
0fffff
07fffe
ENDCHAR
STARTCHAR ch-175
ENCODING 175
SWIDTH 1000 0
DWIDTH 24 0
BBX 24 24 0 -3
BITMAP
01c1c0
018180
018180
018186
ffffff
018180
018180
018180
000000
001000
000800
01cc00
018410
118608
11860c
118606
118006
318003
218043
618043
e18040
c18060
01ffe0
00ffc0
ENDCHAR
STARTCHAR ch-177
ENCODING 177
SWIDTH 1000 0
DWIDTH 24 0
BBX 24 24 0 -3
BITMAP
00e380
00c300
00c300
00c306
ffffff
00c300
00c300
00c300
020000
038708
03060e
07061c
060638
0e0660
0e06c0
1e0700
360600
c60600
060600
060602
060602
060603
0607ff
0603fe
ENDCHAR
STARTCHAR ch-179
ENCODING 179
SWIDTH 1000 0
DWIDTH 24 0
BBX 24 24 0 -3
BITMAP
01c1c0
018180
018186
ffffff
018180
018180
019980
001800
001800
001806
ffffff
006000
006000
006060
007ff0
00e060
00c060
01c060
018060
030060
0600e0
0c00c0
3007c0
c00180
ENDCHAR
STARTCHAR ch-184
ENCODING 184
SWIDTH 1000 0
DWIDTH 24 0
BBX 24 24 0 -3
BITMAP
00e380
00c300
00c300
00c306
ffffff
00c300
00c300
000000
000018
3ffffc
000000
000000
000006
ffffff
007000
006000
00e080
00c040
018020
010030
0207d8
7ffc1c
3f000c
20000c
ENDCHAR
STARTCHAR ch-185
ENCODING 185
SWIDTH 1000 0
DWIDTH 24 0
BBX 24 24 0 -3
BITMAP
00e380
00c300
00c306
ffffff
00c300
00c300
00c070
040ff8
07f000
060000
060000
06000c
07fffe
060600
060600
060600
060600
0c0600
0c0600
180600
100600
200600
c00600
000600
ENDCHAR
STARTCHAR ch-187
ENCODING 187
SWIDTH 1000 0
DWIDTH 24 0
BBX 24 24 0 -3
BITMAP
040000
070000
060018
07fffc
0c0018
083018
163198
666198
07ffb8
00c030
0181f0
070060
39800c
03fffe
06000c
0c300c
1e318c
66318c
06318c
07ff9c
006018
00c038
0303f0
3c0060
ENDCHAR
STARTCHAR ch-189
ENCODING 189
SWIDTH 1000 0
DWIDTH 24 0
BBX 24 24 0 -3
BITMAP
00e380
00c300
00c306
ffffff
00c300
00c300
000000
000018
1ffffc
030180
030180
030180
030186
ffffff
000d80
001d80
003980
007180
00e180
018180
070180
1c0180
e01f80
000700
ENDCHAR
STARTCHAR ch-197
ENCODING 197
SWIDTH 1000 0
DWIDTH 24 0
BBX 24 24 0 -3
BITMAP
00e380
00c300
00c306
ffffff
00c300
00c300
00c300
00000e
00400c
0071cc
20618c
10618c
0cc18c
06c18c
03818c
01018c
03818c
02c18c
06618c
0c600c
18300c
30300c
c0007c
000018
ENDCHAR
STARTCHAR ch-209
ENCODING 209
SWIDTH 1000 0
DWIDTH 24 0
BBX 24 24 0 -3
BITMAP
00e380
00c300
00c306
ffffff
00c300
00c300
08c300
0e0000
0c0418
0c67fc
0ff618
186618
186618
306618
28c618
46c618
8386f8
018630
030600
060602
0c0602
180603
3007ff
c003fe
ENDCHAR
STARTCHAR ch-210
ENCODING 210
SWIDTH 1000 0
DWIDTH 24 0
BBX 24 24 0 -3
BITMAP
01c1c0
018180
018186
ffffff
018180
018180
001c00
001800
081830
0ffff8
0c1830
0c1830
0c1830
0ffff0
0c1830
0c1830
0c1836
ffffff
0c0030
0c0030
0c0030
0c0030
0c01f0
0c0060
ENDCHAR
STARTCHAR ch-211
ENCODING 211
SWIDTH 1000 0
DWIDTH 24 0
BBX 24 24 0 -3
BITMAP
01c1c0
018180
018186
ffffff
018180
019980
001800
003400
006200
00c100
0180c0
030678
0cff1f
300006
c00060
0ffff0
006060
006060
006060
006060
0063e0
0060c0
006000
006000
ENDCHAR
STARTCHAR ch-212
ENCODING 212
SWIDTH 1000 0
DWIDTH 24 0
BBX 24 24 0 -3
BITMAP
01c1c0
018180
018186
ffffff
018180
018180
004000
007000
006080
00c060
008030
0107d8
7ff81c
3f000c
200000
040060
07fff0
060060
060060
060060
060060
060060
07ffe0
060060
ENDCHAR
STARTCHAR ch-215
ENCODING 215
SWIDTH 1000 0
DWIDTH 24 0
BBX 24 24 0 -3
BITMAP
01c1c0
018180
018180
018186
ffffff
018180
018180
018180
000000
100018
1ffffc
181818
181818
181818
181818
1ffff8
181818
181818
181818
181818
181818
1ffff8
180018
180018
ENDCHAR
STARTCHAR ch-217
ENCODING 217
SWIDTH 1000 0
DWIDTH 24 0
BBX 24 24 0 -3
BITMAP
01c1c0
018180
018186
ffffff
018180
018180
001c00
001800
001800
001818
3ffffc
000000
000080
0400e0
0200c0
0300c0
030180
018180
018100
018100
000200
000206
ffffff
000000
ENDCHAR
STARTCHAR ch-219
ENCODING 219
SWIDTH 1000 0
DWIDTH 24 0
BBX 24 24 0 -3
BITMAP
00e380
00c300
00c306
ffffff
00c300
00c300
00c300
000000
000006
ffffff
000030
000030
040c30
07fe30
060c30
060c30
060c30
060c30
07fc30
060c30
060030
000030
0001f0
000060
ENDCHAR
STARTCHAR ch-220
ENCODING 220
SWIDTH 1000 0
DWIDTH 24 0
BBX 24 24 0 -3
BITMAP
01c1c0
018180
018186
ffffff
018180
018180
080030
0ffff8
0c0030
0c0030
0c0030
0c0030
0ffff0
0c0030
0c0030
0c0030
0c0030
0ffff0
0c0030
0c0030
0c0030
0c0030
0ffff0
0c0030
ENDCHAR
STARTCHAR ch-222
ENCODING 222
SWIDTH 1000 0
DWIDTH 24 0
BBX 24 24 0 -3
BITMAP
01c1c0
018180
018186
ffffff
018180
098180
0e0000
0c0030
0ffff8
180030
100030
3ffc30
200c30
400c30
880c30
0ffc30
0c0c70
0c0060
0c03e2
0c00c2
0c0002
0c0003
0fffff
07fffe
ENDCHAR
STARTCHAR ch-223
ENCODING 223
SWIDTH 1000 0
DWIDTH 24 0
BBX 24 24 0 -3
BITMAP
00e380
00c300
00c306
ffffff
00c300
00c300
08c300
0e0000
0c000c
1ffffe
18000c
30000c
24060c
47ff0c
86060c
06060c
06060c
06060c
07fe1c
060618
000018
000038
0003f0
000060
ENDCHAR
STARTCHAR ch-225
ENCODING 225
SWIDTH 1000 0
DWIDTH 24 0
BBX 24 24 0 -3
BITMAP
01c1c0
018180
018186
ffffff
018180
018180
018180
000000
1c001c
180018
184018
183018
181818
181c38
180c30
180030
180030
180060
180060
18e0d0
ff018c
780306
400c03
003003
ENDCHAR
STARTCHAR ch-227
ENCODING 227
SWIDTH 1000 0
DWIDTH 24 0
BBX 24 24 0 -3
BITMAP
01c1c0
018180
018186
ffffff
018180
018180
000000
100018
1ffffc
180000
180000
180030
1ffff8
180030
180030
180030
180030
1ffff0
180030
180000
180000
18000c
1ffffe
180000
ENDCHAR
STARTCHAR ch-229
ENCODING 229
SWIDTH 1000 0
DWIDTH 24 0
BBX 24 24 0 -3
BITMAP
01c1c0
018180
018186
ffffff
018180
018180
018180
003800
003000
003006
ffffff
006000
00c000
018000
030030
07fff8
0d8030
318030
c18030
018030
018030
01fff0
018030
018030
ENDCHAR
STARTCHAR ch-230
ENCODING 230
SWIDTH 1000 0
DWIDTH 24 0
BBX 24 24 0 -3
BITMAP
01c1c0
018180
018180
018186
ffffff
018180
018180
019d80
001800
001800
001806
ffffff
001800
001800
001800
081830
0ffff8
0c0030
0c0030
0c0030
0c0030
0c0030
0ffff0
0c0030
ENDCHAR
STARTCHAR ch-231
ENCODING 231
SWIDTH 1000 0
DWIDTH 24 0
BBX 24 24 0 -3
BITMAP
01c1c0
018180
018186
ffffff
018180
018180
019d80
201800
201806
7fffff
600006
c00004
c00008
000000
7ffffe
001800
001800
001800
001800
001800
001800
001800
00f800
003000
ENDCHAR
STARTCHAR ch-235
ENCODING 235
SWIDTH 1000 0
DWIDTH 24 0
BBX 24 24 0 -3
BITMAP
01c1c0
018180
018186
ffffff
018180
018180
019980
001800
001818
001ffc
001800
001800
001800
101818
1ffffc
180018
180018
180018
180018
180018
180018
1ffff8
180018
180018
ENDCHAR
STARTCHAR ch-241
ENCODING 241
SWIDTH 1000 0
DWIDTH 24 0
BBX 24 24 0 -3
BITMAP
01c1c0
018180
018186
ffffff
018180
018180
019d80
001800
081830
0ffff8
0c1830
0c1830
0c1830
0c1830
0c1836
ffffff
003400
007200
006300
00e1c0
01c0f0
07007f
1c001e
e00006
ENDCHAR
STARTCHAR ch-243
ENCODING 243
SWIDTH 1000 0
DWIDTH 24 0
BBX 24 24 0 -3
BITMAP
01c1c0
018180
018186
ffffff
018180
018180
00e000
00c0c0
01ffe0
038380
068700
186e00
603800
006e00
01c3c0
0700ff
1c703e
e01e06
000600
000000
01c000
003c00
000f00
000300
ENDCHAR
STARTCHAR ch-244
ENCODING 244
SWIDTH 1000 0
DWIDTH 24 0
BBX 24 24 0 -3
BITMAP
01c1c0
018180
018186
ffffff
018180
018180
000000
040060
07fff0
060060
060060
060060
07ffe0
060060
060060
060060
060060
07ffe0
060060
060060
060060
060066
ffffff
000000
ENDCHAR
STARTCHAR ch-249
ENCODING 249
SWIDTH 1000 0
DWIDTH 24 0
BBX 24 24 0 -3
BITMAP
01c1c0
018180
018186
ffffff
018180
018180
000000
000018
3ffffc
001800
081840
061870
031860
0318c0
031880
001906
ffffff
001800
001800
001800
001800
001800
001800
001800
ENDCHAR
STARTCHAR ch-250
ENCODING 250
SWIDTH 1000 0
DWIDTH 24 0
BBX 24 24 0 -3
BITMAP
01c1c0
018180
018186
ffffff
018180
018180
080030
0ffff8
0c0030
0c4030
0c3830
0c1830
0c0036
ffffff
180060
184060
183860
181860
180066
3fffff
3000c0
3000c0
0007c0
000180
ENDCHAR
STARTCHAR ch-251
ENCODING 251
SWIDTH 1000 0
DWIDTH 24 0
BBX 24 24 0 -3
BITMAP
01c1c0
018180
018186
ffffff
018180
018180
000000
020070
038060
070060
060066
0cffff
0c0060
1c0060
2c4060
4c3060
8c1860
0c1860
0c0060
0c0060
0c0060
0c0060
0c03e0
0c00c0
ENDCHAR
STARTCHAR ch-258
ENCODING 258
SWIDTH 1000 0
DWIDTH 24 0
BBX 24 24 0 -3
BITMAP
01c1c0
018180
018186
ffffff
018180
018180
019c00
001900
0018c0
10184c
1ffffe
181800
181840
180870
180ce0
180dc0
180780
180600
180f02
301982
3070c2
21c073
46003f
80000e
ENDCHAR
STARTCHAR ch-259
ENCODING 259
SWIDTH 1000 0
DWIDTH 24 0
BBX 24 24 0 -3
BITMAP
01c1c0
018180
018186
ffffff
018180
018180
100000
0c2018
063ffc
063018
803018
603018
313018
323018
043018
0c30f8
183030
f83000
703002
303002
303002
303003
383fff
181ffe
ENDCHAR
STARTCHAR ch-260
ENCODING 260
SWIDTH 1000 0
DWIDTH 24 0
BBX 24 24 0 -3
BITMAP
00e380
00c300
00c306
ffffff
00c300
00c300
070000
060000
06020c
0633fe
7ffb0c
06330c
06330c
06330c
06330c
06330c
0c330c
0c330c
0c330c
08730c
1863fc
10630c
23e30c
c0c000
ENDCHAR
STARTCHAR ch-261
ENCODING 261
SWIDTH 1000 0
DWIDTH 24 0
BBX 24 24 0 -3
BITMAP
00e380
00c300
00c306
ffffff
00c300
00c300
000060
0ffff0
0000c0
002180
001a00
000c00
000c06
ffffff
003c0c
006c08
00ec10
01cc00
038c00
060c00
180c00
600c00
007c00
001800
ENDCHAR
STARTCHAR ch-262
ENCODING 262
SWIDTH 1000 0
DWIDTH 24 0
BBX 24 24 0 -3
BITMAP
01c1c0
018180
018186
ffffff
018180
018180
006000
21f20c
3e03fe
30030c
30e30c
30c30c
30c30c
30c30c
30c30c
30c30c
30c30c
fec30c
71830c
41837c
030318
060300
0c0300
300300
ENDCHAR
STARTCHAR ch-265
ENCODING 265
SWIDTH 1000 0
DWIDTH 24 0
BBX 24 24 0 -3
BITMAP
01c1c0
018180
018186
ffffff
018180
018180
001c00
001800
00180c
7ffffe
001800
001800
001818
3ffffc
007a00
00f900
00d980
0198c0
031860
061838
0c181f
30180e
c01806
001800
ENDCHAR
STARTCHAR ch-270
ENCODING 270
SWIDTH 1000 0
DWIDTH 24 0
BBX 24 24 0 -3
BITMAP
00e380
00c300
00c306
ffffff
00c300
00c300
0000c0
0fffe0
0101c0
008380
006700
003e00
001c00
007780
01c1ff
0f1c3e
f01800
001830
1ffff8
001800
001800
001806
ffffff
000000
ENDCHAR
STARTCHAR ch-278
ENCODING 278
SWIDTH 1000 0
DWIDTH 24 0
BBX 24 24 0 -3
BITMAP
01c1c0
018180
018186
ffffff
018180
018180
00e000
00c180
01ffc0
030380
0c8700
304c00
003800
006e00
01c3e0
0700ff
1c001e
e7ffe0
060060
060060
060060
060060
07ffe0
060060
ENDCHAR
STARTCHAR ch-279
ENCODING 279
SWIDTH 1000 0
DWIDTH 24 0
BBX 24 24 0 -3
BITMAP
01c1c0
018180
018186
ffffff
018180
01a180
003800
007060
00fff0
0180e0
0301c0
0c8380
306700
002c00
003000
00c018
03fffc
1f0018
e30018
030018
030018
030018
03fff8
030018
ENDCHAR
STARTCHAR ch-280
ENCODING 280
SWIDTH 1000 0
DWIDTH 24 0
BBX 24 24 0 -3
BITMAP
01c1c0
018180
018186
ffffff
018180
018180
000060
0ffff0
003060
006060
006060
00c0c0
0187c0
060180
006006
fff7ff
0c60c6
0c60c6
086086
186186
10c10c
10c10c
27c27c
c18c18
ENDCHAR
STARTCHAR ch-284
ENCODING 284
SWIDTH 1000 0
DWIDTH 24 0
BBX 24 24 0 -3
BITMAP
01c380
018300
018306
ffffff
018300
018300
000006
ffffff
00c600
00c600
20c60c
3ffffe
30c60c
30c60c
31860c
3187fc
3303fc
36000c
38000c
30000c
30000c
3ffffc
30000c
30000c
ENDCHAR
STARTCHAR ch-291
ENCODING 291
SWIDTH 1000 0
DWIDTH 24 0
BBX 24 24 0 -3
BITMAP
01c1c0
018180
018186
ffffff
018180
018180
000000
1cffe0
18c060
18c060
18c060
18ffe0
180000
180030
1ffff8
180030
000030
000036
ffffff
010000
01c300
0380f0
0e0038
300018
ENDCHAR
STARTCHAR ch-296
ENCODING 296
SWIDTH 1000 0
DWIDTH 24 0
BBX 24 24 0 -3
BITMAP
01c1c0
018180
018186
ffffff
018180
018180
019180
001c00
401800
301806
183fff
1c3306
0c6304
004308
008680
000680
008640
030c40
1c0c60
f81830
603038
40601f
00c00e
030006
ENDCHAR
STARTCHAR ch-299
ENCODING 299
SWIDTH 1000 0
DWIDTH 24 0
BBX 24 24 0 -3
BITMAP
01c1c0
018180
018186
ffffff
018180
018180
100000
0c0380
060300
060306
80ffff
601800
311800
321800
041800
0c1800
181800
f81800
701800
301800
301800
301ffe
380ffe
180000
ENDCHAR
STARTCHAR ch-303
ENCODING 303
SWIDTH 1000 0
DWIDTH 24 0
BBX 24 24 0 -3
BITMAP
01c1c0
018180
018186
ffffff
018180
018180
000020
020398
03830c
07030c
060300
0c0306
0cffff
1c0300
2c0300
4c0680
8c0680
0c0440
0c0c60
0c0830
0c1838
0c101f
0c200e
0cc006
ENDCHAR
STARTCHAR ch-305
ENCODING 305
SWIDTH 1000 0
DWIDTH 24 0
BBX 24 24 0 -3
BITMAP
01c1c0
018180
018186
ffffff
018180
018180
041c00
071800
061830
0ffff8
081800
101800
201800
001806
ffffff
007a00
00f900
00d980
0198c0
031870
06183f
18181e
e01806
001800
ENDCHAR
STARTCHAR ch-306
ENCODING 306
SWIDTH 1000 0
DWIDTH 24 0
BBX 24 24 0 -3
BITMAP
01c1c0
018180
018186
ffffff
018180
018180
000000
020080
0380e0
0300c0
060180
240900
180600
0c8320
0ce338
01c070
018060
0300c0
020080
048110
084208
7feffc
3c678c
20640c
ENDCHAR
STARTCHAR ch-308
ENCODING 308
SWIDTH 1000 0
DWIDTH 24 0
BBX 24 24 0 -3
BITMAP
00e380
00c300
00c306
ffffff
00c300
00c300
20000c
3ffffe
30000c
30000c
31018c
31ffcc
31818c
31818c
31818c
31818c
31818c
31ff8c
31818c
30000c
30000c
30000c
3ffffc
30000c
ENDCHAR
STARTCHAR ch-309
ENCODING 309
SWIDTH 1000 0
DWIDTH 24 0
BBX 24 24 0 -3
BITMAP
00e380
00c300
00c306
ffffff
00c300
00c300
20000c
3ffffe
30000c
30380c
30300c
30318c
33ffcc
30300c
30300c
30640c
30630c
30418c
3080cc
3300cc
30000c
30000c
3ffffc
30000c
ENDCHAR
STARTCHAR ch-310
ENCODING 310
SWIDTH 1000 0
DWIDTH 24 0
BBX 24 24 0 -3
BITMAP
01c1c0
018180
018186
ffffff
018180
018180
019980
001800
003400
006200
00c100
0180c0
031c70
0c183f
30181e
c7ffe6
001800
021800
039980
071860
0e1838
18181c
60180c
001800
ENDCHAR
STARTCHAR ch-312
ENCODING 312
SWIDTH 1000 0
DWIDTH 24 0
BBX 24 24 0 -3
BITMAP
00e380
00c300
00c306
ffffff
00c300
00c300
000000
00000c
7ffffe
0300c0
0300c0
03ffc0
0300c0
0300c0
0300c0
03ffc0
0300c0
0300c0
0300f8
7fffc0
3f80c0
2000c0
0000c0
0000c0
ENDCHAR
STARTCHAR ch-313
ENCODING 313
SWIDTH 1000 0
DWIDTH 24 0
BBX 24 24 0 -3
BITMAP
01c1c0
018180
018186
ffffff
018180
018180
000000
0e0000
0c0000
0c6206
fff3ff
186306
186306
186306
30c306
30c306
308306
698306
670306
038306
06c3fe
0c6306
306000
c00000
ENDCHAR
STARTCHAR ch-320
ENCODING 320
SWIDTH 1000 0
DWIDTH 24 0
BBX 24 24 0 -3
BITMAP
00e380
00c300
00c306
ffffff
00c300
00c300
08c300
0e0000
0c000c
1ffffe
18000c
30000c
27fe0c
46060c
86060c
07fe0c
06060c
06060c
06061c
07fe18
060618
000038
0003f0
000060
ENDCHAR
STARTCHAR ch-325
ENCODING 325
SWIDTH 1000 0
DWIDTH 24 0
BBX 24 24 0 -3
BITMAP
01c1c0
018180
018186
ffffff
018180
018180
001800
003800
007400
00e200
01c180
0380e0
0e027f
38ff1e
c00006
000000
080030
0ffff8
0c0030
0c0030
0c0030
0c0030
0ffff0
0c0030
ENDCHAR
STARTCHAR ch-329
ENCODING 329
SWIDTH 1000 0
DWIDTH 24 0
BBX 24 24 0 -3
BITMAP
00e380
00c300
00c306
ffffff
00c300
00c300
080030
0ffff8
0c0030
0c0030
0ffff0
0c0030
0c0030
0c0030
0ffff0
0c1830
001800
001806
ffffff
001800
001800
001800
001800
001800
ENDCHAR
STARTCHAR ch-330
ENCODING 330
SWIDTH 1000 0
DWIDTH 24 0
BBX 24 24 0 -3
BITMAP
00e380
00c300
00c306
ffffff
00c300
00c300
000000
00300e
7ff80c
0cc1cc
0cc18c
0cc18c
0cd98c
fffd8c
0cc18c
0cc18c
0cc18c
18c18c
18c18c
10c00c
30c00c
20c00c
40c07c
80c018
ENDCHAR
STARTCHAR ch-335
ENCODING 335
SWIDTH 1000 0
DWIDTH 24 0
BBX 24 24 0 -3
BITMAP
00e380
00c300
00c306
ffffff
00c300
00c300
04c300
070038
0601fc
0c0fc0
0cf300
180300
180300
380300
580306
99ffff
180300
180300
180300
180300
180300
18030c
18fffe
180000
ENDCHAR
STARTCHAR ch-336
ENCODING 336
SWIDTH 1000 0
DWIDTH 24 0
BBX 24 24 0 -3
BITMAP
01c1c0
018180
018186
ffffff
018180
018180
003800
003006
ffffff
006000
00c018
019ffc
070030
060020
0e0140
360186
c67fff
060180
060180
060180
060180
060180
060f80
060300
ENDCHAR
STARTCHAR ch-338
ENCODING 338
SWIDTH 1000 0
DWIDTH 24 0
BBX 24 24 0 -3
BITMAP
01c1c0
018186
ffffff
018180
018180
001800
001806
ffffff
0c0000
0c0000
0c0000
0ffff8
07fff8
000000
000000
0738e0
0630c0
0630c0
0630c0
0c30c2
0c30c2
1830c3
3030ff
c0007e
ENDCHAR
STARTCHAR ch-344
ENCODING 344
SWIDTH 1000 0
DWIDTH 24 0
BBX 24 24 0 -3
BITMAP
00e380
00c300
00c306
ffffff
00c300
00c300
00c300
000000
0381c0
430180
330180
1b0180
1b0186
03ffff
030180
030180
070180
1b0180
f30180
630180
430180
03018c
037ffe
030000
ENDCHAR
STARTCHAR ch-371
ENCODING 371
SWIDTH 1000 0
DWIDTH 24 0
BBX 24 24 0 -3
BITMAP
01c1c0
018180
018186
ffffff
018180
018180
000018
3ffffc
000000
040060
07fff0
060060
060060
060060
07ffe0
060060
000000
020100
0181c0
00c180
00c100
000206
ffffff
000000
ENDCHAR
STARTCHAR ch-373
ENCODING 373
SWIDTH 1000 0
DWIDTH 24 0
BBX 24 24 0 -3
BITMAP
01c1c0
018180
018186
ffffff
018180
018180
000030
1ffff8
003030
036030
00c070
01b060
031be0
0c18c0
700000
001000
01cc20
118618
11860c
31804e
618046
e18060
c1ffe0
00ffc0
ENDCHAR
STARTCHAR ch-375
ENCODING 375
SWIDTH 1000 0
DWIDTH 24 0
BBX 24 24 0 -3
BITMAP
00e380
00c300
00c306
ffffff
00c300
00c300
040000
070006
06ffff
0c0030
0c0030
188630
18ff30
38c630
58c630
98c630
18c630
18fe30
18c630
18c030
180030
180030
1801f0
180060
ENDCHAR
STARTCHAR ch-379
ENCODING 379
SWIDTH 1000 0
DWIDTH 24 0
BBX 24 24 0 -3
BITMAP
00e380
00c300
00c306
ffffff
00c300
00c300
020000
438380
230300
160308
0c130e
1c130c
361318
c63310
0f6320
0b6280
1b0680
330640
630460
830c30
030838
06101f
3e200e
0cc006
ENDCHAR
STARTCHAR ch-380
ENCODING 380
SWIDTH 1000 0
DWIDTH 24 0
BBX 24 24 0 -3
BITMAP
01c1c0
018180
018186
ffffff
018180
019980
003800
007400
00e200
01c180
0380e0
0e007f
39ff9e
c01806
001830
1ffff8
001800
021800
039980
071860
0e1838
18181c
60f80c
003000
ENDCHAR
STARTCHAR ch-389
ENCODING 389
SWIDTH 1000 0
DWIDTH 24 0
BBX 24 24 0 -3
BITMAP
01c1c0
018180
018186
ffffff
018180
018180
000000
020000
0381c0
070180
06018c
0c7ffe
0c0000
1c0010
2c101c
4c0818
8c0830
0c0c30
0c0c20
0c0c20
0c0040
0c0046
0cffff
0c0000
ENDCHAR
STARTCHAR ch-391
ENCODING 391
SWIDTH 1000 0
DWIDTH 24 0
BBX 24 24 0 -3
BITMAP
01c1c0
018180
018186
ffffff
018180
018180
000000
000000
20c1c0
3fe180
30c180
30c186
30dfff
3fc186
30c186
30c186
30c186
3fc306
30c306
30c206
30f60e
ff840c
78087c
403018
ENDCHAR
STARTCHAR ch-393
ENCODING 393
SWIDTH 1000 0
DWIDTH 24 0
BBX 24 24 0 -3
BITMAP
01c1c0
018180
018186
ffffff
018180
018180
00600e
03f00c
7f01cc
03018c
03318c
fff98c
03018c
03018c
07818c
07618c
0f318c
0b318c
13018c
23000c
c3000c
03000c
03007c
030018
ENDCHAR
STARTCHAR ch-394
ENCODING 394
SWIDTH 1000 0
DWIDTH 24 0
BBX 24 24 0 -3
BITMAP
01c1c0
018180
018186
ffffff
018180
018180
000000
000000
39c1c0
318180
318180
318180
3f8186
31bfff
018180
018180
ff8180
198180
198180
118180
318180
21818c
419ffe
018000
ENDCHAR
STARTCHAR ch-398
ENCODING 398
SWIDTH 1000 0
DWIDTH 24 0
BBX 24 24 0 -3
BITMAP
01c1c0
018180
018186
ffffff
018180
018180
100000
0c0380
060300
060300
802310
603b0c
313306
326307
044323
0c8338
181f30
f80670
700060
3000c0
300180
300700
381c00
18e000
ENDCHAR
STARTCHAR ch-403
ENCODING 403
SWIDTH 1000 0
DWIDTH 24 0
BBX 24 24 0 -3
BITMAP
01c1c0
018186
ffffff
018180
118180
1c0000
18000c
3ffffe
300000
600000
4ffff0
8c1830
0c1830
0c1836
ffffff
183060
183060
183060
183066
3fffff
3000c0
0000c0
0007c0
000180
ENDCHAR
STARTCHAR ch-406
ENCODING 406
SWIDTH 1000 0
DWIDTH 24 0
BBX 24 24 0 -3
BITMAP
01c1c0
018180
018186
ffffff
018180
018180
00000c
7ffffe
040810
0e1c38
183060
204080
102040
0c1830
060c18
060c18
000000
3ffffc
001800
001800
001800
001806
ffffff
000000
ENDCHAR
STARTCHAR ch-410
ENCODING 410
SWIDTH 1000 0
DWIDTH 24 0
BBX 24 24 0 -3
BITMAP
01c1c0
018180
018186
ffffff
018180
018180
000000
060018
ff01fc
0c3f80
180180
18018c
3339fe
7fb180
633180
033180
423180
263186
14ffff
0c0000
0b0000
11ffff
207ffe
c00000
ENDCHAR
STARTCHAR ch-414
ENCODING 414
SWIDTH 1000 0
DWIDTH 24 0
BBX 24 24 0 -3
BITMAP
01c1c0
018180
018186
ffffff
018180
018180
201c00
201806
7fffff
600006
c00004
c000c8
0fffe0
000000
000006
ffffff
00c600
00c600
018600
018602
030602
060603
1c07ff
e003fe
ENDCHAR
STARTCHAR ch-415
ENCODING 415
SWIDTH 1000 0
DWIDTH 24 0
BBX 24 24 0 -3
BITMAP
01c1c0
018180
018186
ffffff
018180
019980
003800
007400
00e200
018180
077cf0
1c003f
e0018e
07ffc0
000300
000600
040c60
07fff0
060060
060060
060060
060060
07ffe0
060060
ENDCHAR
STARTCHAR ch-416
ENCODING 416
SWIDTH 1000 0
DWIDTH 24 0
BBX 24 24 0 -3
BITMAP
01c1c0
018180
018186
ffffff
018180
018180
001fc0
0ff800
001806
ffffff
007a00
00d900
0198c0
071870
1c183f
e7ff0e
00c300
00c330
0183f8
018030
030030
060070
0c03e0
7000c0
ENDCHAR
STARTCHAR ch-418
ENCODING 418
SWIDTH 1000 0
DWIDTH 24 0
BBX 24 24 0 -3
BITMAP
01c1c0
018180
018186
ffffff
018180
018180
001c00
00180c
7ffffe
001800
041840
071870
061860
0c1860
0b18d0
11b48c
21b506
406206
006300
00c180
0180e0
070078
1c003f
e0000e
ENDCHAR
STARTCHAR ch-424
ENCODING 424
SWIDTH 1000 0
DWIDTH 24 0
BBX 24 24 0 -3
BITMAP
01c1c0
018180
018186
ffffff
018180
001c00
001800
041860
07fff0
060060
060060
07ffe0
060060
060060
060068
07ffee
06041c
060230
060340
063180
07c0e0
7e007e
38003c
20000c
ENDCHAR
STARTCHAR ch-426
ENCODING 426
SWIDTH 1000 0
DWIDTH 24 0
BBX 24 24 0 -3
BITMAP
01c1c0
018180
018186
ffffff
018180
018180
000000
00c720
07e618
7e060c
06060c
060600
ffffff
060300
060308
06630e
0f819c
fe01b8
7600e2
4601c2
060362
060c73
3e303f
0c000e
ENDCHAR
STARTCHAR ch-427
ENCODING 427
SWIDTH 1000 0
DWIDTH 24 0
BBX 24 24 0 -3
BITMAP
00e380
00c300
00c30c
7ffffe
00c300
00c300
07ffe0
060060
060060
07ffe0
060060
060060
060060
07ffe0
003000
003006
ffffff
006400
006200
00c300
0181c0
0300fe
0c003c
70000c
ENDCHAR
STARTCHAR ch-433
ENCODING 433
SWIDTH 1000 0
DWIDTH 24 0
BBX 24 24 0 -3
BITMAP
01c1c0
018180
018186
ffffff
018180
018180
001c00
001818
3ffffc
001840
081870
061860
031840
031886
ffffff
007a00
00d900
019980
0318c0
061870
0c183f
30181e
c01806
001800
ENDCHAR
STARTCHAR ch-437
ENCODING 437
SWIDTH 1000 0
DWIDTH 24 0
BBX 24 24 0 -3
BITMAP
01c1c0
018180
018186
ffffff
018180
019180
001c00
003800
102018
1ffffc
181818
181818
181818
181818
1ffff8
180618
010640
01c620
038632
030632
060602
0c0603
3007ff
c003fe
ENDCHAR
STARTCHAR ch-445
ENCODING 445
SWIDTH 1000 0
DWIDTH 24 0
BBX 24 24 0 -3
BITMAP
01c1c0
018180
018186
ffffff
018180
018180
003800
003006
ffffff
00c200
018100
0300c0
0e0078
39819f
c18186
018180
3ffffc
018180
018180
030180
030180
060180
0c0180
300180
ENDCHAR
STARTCHAR ch-449
ENCODING 449
SWIDTH 1000 0
DWIDTH 24 0
BBX 24 24 0 -3
BITMAP
01c1c0
018186
ffffff
018180
018180
001830
1ffff8
001800
0ffff0
001800
001806
ffffff
000000
07ffe0
060060
060060
07ffe0
060060
060060
07ffe0
060060
060060
0603e0
0600c0
ENDCHAR
STARTCHAR ch-453
ENCODING 453
SWIDTH 1000 0
DWIDTH 24 0
BBX 24 24 0 -3
BITMAP
01c1c0
018186
ffffff
018180
018180
101800
101806
1fffff
300006
3200c4
63ffe8
6300c0
0300c0
0300c0
03ffc0
030000
030060
03fff0
030060
030060
030060
030060
03ffe0
030060
ENDCHAR
STARTCHAR ch-458
ENCODING 458
SWIDTH 1000 0
DWIDTH 24 0
BBX 24 24 0 -3
BITMAP
00e380
00c300
00c306
ffffff
00c300
04c300
070000
06000c
0ffffe
0c000c
18720c
34638c
63670c
83640c
0068cc
7fffec
01e00c
03f00c
036c0c
066618
0c6318
186318
6060f8
006030
ENDCHAR
STARTCHAR ch-460
ENCODING 460
SWIDTH 1000 0
DWIDTH 24 0
BBX 24 24 0 -3
BITMAP
00e380
00c300
00c306
ffffff
00c300
00c300
20000c
3ffffe
30000c
30070c
31ff8c
30180c
3018cc
37ffec
30380c
307c0c
305b0c
30998c
3118cc
3618cc
30180c
30000c
3ffffc
30000c
ENDCHAR
STARTCHAR ch-462
ENCODING 462
SWIDTH 1000 0
DWIDTH 24 0
BBX 24 24 0 -3
BITMAP
01c1c0
018180
018186
ffffff
018180
018180
0ffff0
0c0030
0c0030
0ffff0
0c0030
0c0030
0ffff0
000000
000000
0e0700
0c6618
0ff67c
0c07c0
0c0602
0c0602
ffe603
7c07ff
4003fe
ENDCHAR
STARTCHAR ch-467
ENCODING 467
SWIDTH 1000 0
DWIDTH 24 0
BBX 24 24 0 -3
BITMAP
00e380
00c306
ffffff
00c300
00c300
0ffff0
0c1830
0c1830
0c1830
0ffff0
0c1830
0c1830
0c1830
0ffff0
001800
001806
ffffff
007a00
00f900
01d8c0
071870
1c183f
e0180e
001800
ENDCHAR
STARTCHAR ch-470
ENCODING 470
SWIDTH 1000 0
DWIDTH 24 0
BBX 24 24 0 -3
BITMAP
00e380
00c306
ffffff
00c300
00c300
040060
07fff0
060060
060060
07ffe0
060060
060060
07ffe0
000000
20000c
3ffffe
30000c
30000c
3ffffc
30000c
30000c
30000c
3ffffc
30000c
ENDCHAR
STARTCHAR ch-472
ENCODING 472
SWIDTH 1000 0
DWIDTH 24 0
BBX 24 24 0 -3
BITMAP
01c1c0
018180
018186
ffffff
018180
018180
000000
0e0040
0c0840
0c0e20
0d8c30
ffcc18
0c181c
0c120f
1e2386
1d8300
3cc300
2cc620
6c0410
4c0418
8c080c
0c7ffe
0c3e06
0c2006
ENDCHAR
STARTCHAR ch-476
ENCODING 476
SWIDTH 1000 0
DWIDTH 24 0
BBX 24 24 0 -3
BITMAP
00e380
00c300
00c306
ffffff
00c300
00c000
0001e0
003ff0
1ff040
041870
030c60
018cc0
018100
001800
001806
ffffff
007a00
00d900
01d8c0
039870
0e183f
38181e
c01806
001800
ENDCHAR
STARTCHAR ch-479
ENCODING 479
SWIDTH 1000 0
DWIDTH 24 0
BBX 24 24 0 -3
BITMAP
01c1c0
018180
018186
ffffff
018180
006000
00ff80
018300
030600
060c30
1ffff8
6c1830
0c1830
0c1830
0ffff0
0c0630
008600
00e640
01c638
01861a
030602
060603
1807ff
e003fe
ENDCHAR
STARTCHAR ch-480
ENCODING 480
SWIDTH 1000 0
DWIDTH 24 0
BBX 24 24 0 -3
BITMAP
01c1c0
018180
018186
ffffff
018180
018180
100000
0c01c0
064186
067fff
806186
606184
316198
327ffc
046818
0c6418
186430
f86230
70c360
30c1c0
308360
310638
3a181f
186006
ENDCHAR
STARTCHAR ch-489
ENCODING 489
SWIDTH 1000 0
DWIDTH 24 0
BBX 24 24 0 -3
BITMAP
01c1c0
018180
018186
ffffff
018180
018180
001800
001818
3ffffc
020100
0181c0
00c180
00c206
ffffff
000000
000000
040060
07fff0
060060
060060
060060
060060
07ffe0
060060
ENDCHAR
STARTCHAR ch-491
ENCODING 491
SWIDTH 1000 0
DWIDTH 24 0
BBX 24 24 0 -3
BITMAP
01c1c0
018186
ffffff
018180
018180
00000c
7ffffe
001800
101818
1ffffc
181818
181818
1ffff8
181818
001800
3ffffc
001800
001800
1ffff8
001800
001800
001806
ffffff
000000
ENDCHAR
STARTCHAR ch-495
ENCODING 495
SWIDTH 1000 0
DWIDTH 24 0
BBX 24 24 0 -3
BITMAP
01c1c0
018180
018186
ffffff
018180
018180
000018
3ffffc
061860
061860
061866
ffffff
061860
061860
061868
3ffffc
001800
001800
00180c
7ffffe
001800
001800
001800
001800
ENDCHAR
STARTCHAR ch-496
ENCODING 496
SWIDTH 1000 0
DWIDTH 24 0
BBX 24 24 0 -3
BITMAP
00e380
00c300
00c306
ffffff
00c300
00c300
000000
018038
7fd1fc
019f20
011820
0a1920
0c1920
0c1920
0d9930
fe1910
7c1110
4c3110
0c3158
0c2148
0c61ec
0c5f6f
7c8c66
190006
ENDCHAR
STARTCHAR ch-497
ENCODING 497
SWIDTH 1000 0
DWIDTH 24 0
BBX 24 24 0 -3
BITMAP
00e380
00c306
ffffff
00c300
00c300
001830
1ffff8
001800
001806
ffffff
018180
030180
0641ff
0c70ff
306000
c0ffc0
01c180
034300
0c2600
301c00
0037c0
00e1ff
07807e
f8000e
ENDCHAR
STARTCHAR ch-498
ENCODING 498
SWIDTH 1000 0
DWIDTH 24 0
BBX 24 24 0 -3
BITMAP
01c1c0
018180
018186
ffffff
018180
018180
000000
00e380
00c30c
7fc3fe
00c300
00c300
00c30c
3fc3fe
00c300
00c300
03c300
fcc306
7183ff
418300
030300
060300
0c0300
300300
ENDCHAR
STARTCHAR ch-500
ENCODING 500
SWIDTH 1000 0
DWIDTH 24 0
BBX 24 24 0 -3
BITMAP
01c1c0
018180
018186
ffffff
018180
018180
007000
006006
ffffff
00c100
019880
031860
07fff8
0e187f
36186e
c7ffe0
061860
061860
07ffe0
061864
001804
001806
001ffe
000ffc
ENDCHAR
STARTCHAR ch-503
ENCODING 503
SWIDTH 1000 0
DWIDTH 24 0
BBX 24 24 0 -3
BITMAP
01c1c0
018186
ffffff
018180
018180
0ffff0
000030
0ffff0
000030
000030
0ffff0
200000
200006
7fffff
601806
c01804
cffff0
0c1830
0c1830
0c1830
0c1830
0c19f0
0c1860
001800
ENDCHAR
STARTCHAR ch-507
ENCODING 507
SWIDTH 1000 0
DWIDTH 24 0
BBX 24 24 0 -3
BITMAP
01c1c0
018180
018186
ffffff
018180
018180
000000
0380e0
0300c0
0300c6
ffffff
0300c0
0300c0
0701e0
0781e0
0f63f0
0b32d0
1b36d8
3304cc
6308cf
8310c6
0300c0
0300c0
0300c0
ENDCHAR
STARTCHAR ch-509
ENCODING 509
SWIDTH 1000 0
DWIDTH 24 0
BBX 24 24 0 -3
BITMAP
01c1c0
018180
018186
ffffff
018180
018180
000000
070000
06000c
064ffe
07e20c
06020c
061118
fff918
060130
0600b0
4680e0
764040
6660e0
6630b0
463198
86031f
1e060e
0c1806
ENDCHAR
ENDFONT
